<svg version="1.1" id="Layer_1" xmlns="http://www.w3.org/2000/svg" xmlns:xlink="http://www.w3.org/1999/xlink" x="0px" y="0px"
	 width="100%" viewBox="0 0 800 800" enable-background="new 0 0 800 800" xml:space="preserve">
<path fill="#000000" opacity="1.000000" stroke="none" 
	d="
M430.000000,801.000000 
	C286.666656,801.000000 143.833328,801.000000 1.000000,801.000000 
	C1.000000,534.333313 1.000000,267.666656 1.000000,1.000000 
	C267.666656,1.000000 534.333313,1.000000 801.000000,1.000000 
	C801.000000,267.666656 801.000000,534.333313 801.000000,801.000000 
	C677.500000,801.000000 554.000000,801.000000 430.000000,801.000000 
M485.000000,348.500000 
	C474.609680,337.777924 464.311859,326.964264 453.807587,316.355011 
	C437.514557,299.899200 421.005096,283.657135 404.778046,267.137207 
	C401.921967,264.229614 400.371857,264.980164 397.987549,267.414062 
	C388.894470,276.696259 379.807037,285.995514 370.383911,294.936890 
	C366.818115,298.320404 366.504364,300.236328 370.224060,303.911499 
	C398.430267,331.779938 426.396484,359.891296 454.434998,387.929474 
	C455.601715,389.096191 456.742889,390.288452 458.164520,391.743713 
	C392.952698,392.628754 328.602142,393.502106 262.530060,394.398834 
	C264.124420,397.694702 264.613525,399.965607 265.989288,401.364349 
	C295.735474,431.606628 325.527924,461.803894 355.422485,491.899567 
	C381.356262,518.007812 407.427185,543.979736 433.438812,570.013306 
	C434.818634,569.020813 436.121796,568.299377 437.160767,567.302612 
	C446.852051,558.004333 456.396149,548.549744 466.211365,539.385132 
	C469.733002,536.096863 469.566284,533.925720 466.168121,530.556030 
	C438.722656,503.340149 411.440674,475.959290 384.142517,448.595184 
	C382.607605,447.056610 381.369751,445.221741 379.597961,443.036835 
	C382.170532,442.595215 383.902100,442.054535 385.638031,442.040161 
	C395.591949,441.957550 405.548767,442.120636 415.501099,441.969116 
	C428.004486,441.778748 440.503082,441.274841 453.006439,441.077087 
	C463.006195,440.918915 473.011200,441.109436 483.011780,440.980652 
	C503.924316,440.711334 524.835083,440.304962 545.747437,440.015686 
	C552.893433,439.916840 560.046997,440.147675 567.186340,439.907837 
	C569.264709,439.837982 571.305969,438.661285 574.236572,437.708252 
	C543.919739,407.401123 514.709839,378.200562 485.000000,348.500000 
z"/>
<path fill="#FFFFFF" opacity="1.000000" stroke="none" 
	d="
M485.250000,348.750000 
	C514.709839,378.200562 543.919739,407.401123 574.236572,437.708252 
	C571.305969,438.661285 569.264709,439.837982 567.186340,439.907837 
	C560.046997,440.147675 552.893433,439.916840 545.747437,440.015686 
	C524.835083,440.304962 503.924316,440.711334 483.011780,440.980652 
	C473.011200,441.109436 463.006195,440.918915 453.006439,441.077087 
	C440.503082,441.274841 428.004486,441.778748 415.501099,441.969116 
	C405.548767,442.120636 395.591949,441.957550 385.638031,442.040161 
	C383.902100,442.054535 382.170532,442.595215 379.597961,443.036835 
	C381.369751,445.221741 382.607605,447.056610 384.142517,448.595184 
	C411.440674,475.959290 438.722656,503.340149 466.168121,530.556030 
	C469.566284,533.925720 469.733002,536.096863 466.211365,539.385132 
	C456.396149,548.549744 446.852051,558.004333 437.160767,567.302612 
	C436.121796,568.299377 434.818634,569.020813 433.438812,570.013306 
	C407.427185,543.979736 381.356262,518.007812 355.422485,491.899567 
	C325.527924,461.803894 295.735474,431.606628 265.989288,401.364349 
	C264.613525,399.965607 264.124420,397.694702 262.530060,394.398834 
	C328.602142,393.502106 392.952698,392.628754 458.164520,391.743713 
	C456.742889,390.288452 455.601715,389.096191 454.434998,387.929474 
	C426.396484,359.891296 398.430267,331.779938 370.224060,303.911499 
	C366.504364,300.236328 366.818115,298.320404 370.383911,294.936890 
	C379.807037,285.995514 388.894470,276.696259 397.987549,267.414062 
	C400.371857,264.980164 401.921967,264.229614 404.778046,267.137207 
	C421.005096,283.657135 437.514557,299.899200 453.807587,316.355011 
	C464.311859,326.964264 474.609680,337.777924 485.250000,348.750000 
M414.359283,526.991638 
	C418.909912,526.913696 418.496216,523.345398 417.713043,520.938721 
	C417.261841,519.552063 414.327362,518.183472 412.585236,518.272095 
	C411.327911,518.336182 409.538483,520.652405 409.142578,522.250610 
	C408.351593,525.443420 409.933563,527.348267 414.359283,526.991638 
M435.947357,552.805054 
	C436.607452,552.867981 437.325165,553.128601 437.916565,552.956116 
	C439.541656,552.482117 442.129700,552.180420 442.483643,551.164734 
	C443.113647,549.356873 443.050934,546.578491 441.997864,545.148926 
	C441.187103,544.048340 438.082794,543.609985 436.575806,544.245850 
	C432.375031,546.018311 433.558807,549.312927 435.947357,552.805054 
z"/>
<path fill="#FFFFFF" opacity="1.000000" stroke="none" 
	d="
M413.929626,526.994629 
	C409.933563,527.348267 408.351593,525.443420 409.142578,522.250610 
	C409.538483,520.652405 411.327911,518.336182 412.585236,518.272095 
	C414.327362,518.183472 417.261841,519.552063 417.713043,520.938721 
	C418.496216,523.345398 418.909912,526.913696 413.929626,526.994629 
z"/>
<path fill="#FFFFFF" opacity="1.000000" stroke="none" 
	d="
M435.567139,552.610596 
	C433.558807,549.312927 432.375031,546.018311 436.575806,544.245850 
	C438.082794,543.609985 441.187103,544.048340 441.997864,545.148926 
	C443.050934,546.578491 443.113647,549.356873 442.483643,551.164734 
	C442.129700,552.180420 439.541656,552.482117 437.916565,552.956116 
	C437.325165,553.128601 436.607452,552.867981 435.567139,552.610596 
z"/>
</svg>